<?xml version="1.0" encoding="UTF-8" standalone="no"?><!DOCTYPE svg PUBLIC "-//W3C//DTD SVG 1.1//EN" "http://www.w3.org/Graphics/SVG/1.1/DTD/svg11.dtd"><svg width="100%" height="100%" viewBox="0 0 900 900" version="1.1" xmlns="http://www.w3.org/2000/svg" xmlns:xlink="http://www.w3.org/1999/xlink" xml:space="preserve" xmlns:serif="http://www.serif.com/" style="fill-rule:evenodd;clip-rule:evenodd;stroke-linejoin:round;stroke-miterlimit:2;"><path d="M441.376,159.813c0,-59.545 -48.343,-107.888 -107.888,-107.888l-215.775,0c-59.545,0 -107.887,48.343 -107.887,107.888l0,621.469c0,59.545 48.342,107.888 107.887,107.888l215.775,0c59.545,0 107.888,-48.343 107.888,-107.888l0,-621.469Z" style="fill:#e6e6e6;"/><path d="M890.531,159.813c0,-59.545 -48.342,-107.888 -107.887,-107.888l-215.775,0c-59.545,0 -107.888,48.343 -107.888,107.888l0,621.469c0,59.545 48.343,107.888 107.888,107.888l215.775,0c59.545,0 107.887,-48.343 107.887,-107.888l0,-621.469Z" style="fill:#e6e6e6;"/><path d="M237.594,104.862c0.709,-8.556 -5.662,-16.077 -14.218,-16.785l-90.594,-7.501c-8.556,-0.709 -16.077,5.662 -16.786,14.218l-2.567,31.003c-0.708,8.555 5.663,16.077 14.219,16.785l90.594,7.501c8.556,0.708 16.077,-5.663 16.785,-14.218l2.567,-31.003Z" style="fill:#798e87;"/><path d="M361.531,115.123c0.708,-8.555 -5.663,-16.076 -14.219,-16.785l-90.594,-7.501c-8.556,-0.708 -16.077,5.663 -16.785,14.218l-2.567,31.003c-0.709,8.556 5.662,16.077 14.218,16.786l90.595,7.501c8.555,0.708 16.076,-5.663 16.785,-14.219l2.567,-31.003Z" style="fill:#ccc591;"/><path d="M232.176,170.307c0.708,-8.555 -5.663,-16.076 -14.218,-16.785l-90.595,-7.501c-8.556,-0.708 -16.077,5.663 -16.785,14.218l-2.567,31.004c-0.709,8.555 5.662,16.076 14.218,16.785l90.595,7.501c8.555,0.708 16.076,-5.663 16.785,-14.218l2.567,-31.004Z" style="fill:#c27d38;"/><path d="M356.112,180.569c0.708,-8.556 -5.663,-16.077 -14.218,-16.785l-90.595,-7.501c-8.556,-0.709 -16.077,5.662 -16.785,14.218l-2.567,31.003c-0.708,8.556 5.662,16.077 14.218,16.785l90.595,7.501c8.555,0.709 16.076,-5.662 16.785,-14.218l2.567,-31.003Z" style="fill:#29211f;"/><path d="M218.372,298.256c-4.403,-7.369 -13.961,-9.777 -21.331,-5.373l-78.035,46.628c-7.369,4.404 -9.777,13.962 -5.373,21.332l15.957,26.705c4.403,7.369 13.962,9.777 21.331,5.373l78.035,-46.629c7.369,-4.403 9.777,-13.961 5.374,-21.331l-15.958,-26.705Z" style="fill:#798e87;"/><path d="M325.126,234.467c-4.404,-7.37 -13.962,-9.778 -21.331,-5.374l-78.035,46.629c-7.369,4.403 -9.777,13.961 -5.374,21.331l15.958,26.705c4.403,7.369 13.961,9.777 21.331,5.374l78.034,-46.629c7.37,-4.404 9.778,-13.962 5.374,-21.331l-15.957,-26.705Z" style="fill:#ccc591;"/><path d="M252.057,354.629c-4.404,-7.37 -13.962,-9.778 -21.331,-5.374l-78.035,46.629c-7.369,4.403 -9.777,13.961 -5.374,21.331l15.958,26.705c4.403,7.369 13.961,9.777 21.331,5.374l78.034,-46.629c7.37,-4.404 9.778,-13.962 5.374,-21.331l-15.957,-26.705Z" style="fill:#c27d38;"/><path d="M358.811,290.839c-4.404,-7.369 -13.962,-9.777 -21.331,-5.374l-78.035,46.629c-7.37,4.404 -9.777,13.962 -5.374,21.331l15.957,26.705c4.404,7.37 13.962,9.778 21.331,5.374l78.035,-46.629c7.37,-4.403 9.778,-13.962 5.374,-21.331l-15.957,-26.705Z" style="fill:#29211f;"/><path d="M190.136,493.129c3.478,-7.849 -0.072,-17.045 -7.921,-20.522l-83.113,-36.822c-7.849,-3.477 -17.045,0.072 -20.522,7.921l-12.601,28.443c-3.477,7.849 0.072,17.045 7.921,20.522l83.113,36.822c7.85,3.477 17.045,-0.072 20.522,-7.921l12.601,-28.443Z" style="fill:#798e87;"/><path d="M303.838,543.501c3.477,-7.849 -0.072,-17.045 -7.921,-20.522l-83.114,-36.821c-7.849,-3.477 -17.044,0.072 -20.521,7.921l-12.601,28.443c-3.478,7.849 0.072,17.045 7.921,20.522l83.113,36.821c7.849,3.478 17.045,-0.072 20.522,-7.921l12.601,-28.443Z" style="fill:#ccc591;"/><path d="M163.537,553.17c3.477,-7.849 -0.072,-17.045 -7.921,-20.522l-83.114,-36.821c-7.849,-3.478 -17.045,0.072 -20.522,7.921l-12.601,28.443c-3.477,7.849 0.072,17.044 7.921,20.522l83.114,36.821c7.849,3.477 17.044,-0.072 20.522,-7.921l12.601,-28.443Z" style="fill:#c27d38;"/><path d="M277.238,603.542c3.478,-7.849 -0.072,-17.044 -7.921,-20.521l-83.113,-36.822c-7.849,-3.477 -17.045,0.072 -20.522,7.921l-12.601,28.443c-3.477,7.849 0.072,17.045 7.921,20.522l83.113,36.822c7.849,3.477 17.045,-0.072 20.522,-7.921l12.601,-28.444Z" style="fill:#29211f;"/><path d="M177.043,720.1c-1.123,-8.511 -8.945,-14.509 -17.456,-13.387l-90.124,11.889c-8.511,1.122 -14.509,8.944 -13.386,17.455l4.068,30.842c1.123,8.511 8.944,14.51 17.455,13.387l90.124,-11.888c8.511,-1.123 14.51,-8.944 13.387,-17.456l-4.068,-30.842Z" style="fill:#798e87;"/><path d="M300.335,703.837c-1.123,-8.511 -8.944,-14.51 -17.455,-13.387l-90.124,11.888c-8.512,1.123 -14.51,8.944 -13.387,17.455l4.068,30.843c1.123,8.511 8.944,14.509 17.455,13.386l90.124,-11.888c8.512,-1.123 14.51,-8.944 13.387,-17.455l-4.068,-30.842Z" style="fill:#ccc591;"/><path d="M185.631,785.206c-1.123,-8.511 -8.944,-14.51 -17.455,-13.387l-90.124,11.888c-8.512,1.123 -14.51,8.945 -13.387,17.456l4.068,30.842c1.123,8.511 8.944,14.509 17.455,13.387l90.124,-11.889c8.511,-1.122 14.51,-8.944 13.387,-17.455l-4.068,-30.842Z" style="fill:#c27d38;"/><path d="M308.923,768.942c-1.123,-8.511 -8.944,-14.509 -17.455,-13.387l-90.124,11.889c-8.511,1.123 -14.51,8.944 -13.387,17.455l4.068,30.842c1.123,8.511 8.944,14.51 17.456,13.387l90.124,-11.888c8.511,-1.123 14.509,-8.944 13.386,-17.456l-4.068,-30.842Z" style="fill:#29211f;"/><path d="M692.785,86.177c-0.882,-8.539 -8.532,-14.755 -17.071,-13.873l-90.423,9.347c-8.539,0.882 -14.756,8.532 -13.873,17.071l3.199,30.945c0.882,8.539 8.532,14.755 17.071,13.872l90.423,-9.346c8.539,-0.883 14.756,-8.532 13.873,-17.071l-3.199,-30.945Z" style="fill:#798e87;"/><path d="M816.487,73.391c-0.883,-8.539 -8.532,-14.756 -17.072,-13.873l-90.423,9.346c-8.539,0.883 -14.755,8.533 -13.873,17.072l3.199,30.944c0.882,8.54 8.532,14.756 17.071,13.873l90.423,-9.346c8.54,-0.883 14.756,-8.532 13.873,-17.072l-3.198,-30.944Z" style="fill:#ccc591;"/><path d="M699.537,151.499c-0.882,-8.54 -8.532,-14.756 -17.071,-13.873l-90.423,9.346c-8.54,0.883 -14.756,8.532 -13.873,17.072l3.198,30.944c0.883,8.54 8.533,14.756 17.072,13.873l90.423,-9.346c8.539,-0.883 14.755,-8.532 13.873,-17.072l-3.199,-30.944Z" style="fill:#c27d38;"/><path d="M823.239,138.713c-0.883,-8.54 -8.533,-14.756 -17.072,-13.873l-90.423,9.346c-8.539,0.883 -14.756,8.532 -13.873,17.072l3.199,30.944c0.882,8.539 8.532,14.756 17.071,13.873l90.423,-9.346c8.539,-0.883 14.756,-8.533 13.873,-17.072l-3.198,-30.944Z" style="fill:#29211f;"/><path d="M624.616,389.285c0.708,-8.556 -5.662,-16.077 -14.218,-16.785l-90.595,-7.501c-8.555,-0.709 -16.076,5.662 -16.785,14.218l-2.567,31.003c-0.708,8.555 5.663,16.077 14.218,16.785l90.595,7.501c8.556,0.708 16.077,-5.663 16.785,-14.218l2.567,-31.003Z" style="fill:#ccc591;"/><path d="M785.824,269.846c0.708,-8.556 -5.663,-16.077 -14.218,-16.786l-90.595,-7.501c-8.556,-0.708 -16.077,5.663 -16.785,14.219l-2.567,31.003c-0.708,8.555 5.662,16.076 14.218,16.785l90.595,7.501c8.555,0.708 16.076,-5.663 16.785,-14.218l2.567,-31.003Z" style="fill:#ccc591;"/><path d="M619.197,454.73c0.709,-8.555 -5.662,-16.076 -14.218,-16.785l-90.595,-7.501c-8.555,-0.708 -16.076,5.663 -16.785,14.218l-2.567,31.004c-0.708,8.555 5.663,16.076 14.219,16.785l90.594,7.501c8.556,0.708 16.077,-5.663 16.785,-14.218l2.567,-31.004Z" style="fill:#29211f;"/><path d="M780.405,335.291c0.708,-8.555 -5.662,-16.076 -14.218,-16.785l-90.595,-7.501c-8.555,-0.708 -16.076,5.663 -16.785,14.218l-2.567,31.003c-0.708,8.556 5.663,16.077 14.218,16.786l90.595,7.501c8.556,0.708 16.077,-5.663 16.785,-14.219l2.567,-31.003Z" style="fill:#29211f;"/><path d="M758.751,469.283c-1.767,-8.401 -10.023,-13.787 -18.424,-12.02l-88.957,18.712c-8.401,1.767 -13.787,10.023 -12.02,18.424l6.404,30.443c1.767,8.401 10.022,13.787 18.423,12.019l88.958,-18.712c8.401,-1.767 13.787,-10.022 12.02,-18.423l-6.404,-30.443Z" style="fill:#c27d38;"/><path d="M880.448,443.684c-1.767,-8.401 -10.022,-13.787 -18.423,-12.02l-88.958,18.712c-8.401,1.767 -13.787,10.023 -12.02,18.424l6.404,30.443c1.767,8.401 10.022,13.787 18.423,12.019l88.958,-18.712c8.401,-1.767 13.787,-10.022 12.02,-18.423l-6.404,-30.443Z" style="fill:#29211f;"/><path d="M655.574,605.365c2.582,-8.187 -1.969,-16.931 -10.156,-19.513l-86.696,-27.341c-8.187,-2.582 -16.931,1.969 -19.513,10.157l-9.356,29.669c-2.582,8.187 1.969,16.93 10.156,19.512l86.696,27.341c8.187,2.582 16.931,-1.969 19.513,-10.156l9.356,-29.669Z" style="fill:#c27d38;"/><path d="M774.176,642.768c2.582,-8.187 -1.968,-16.931 -10.156,-19.513l-86.696,-27.341c-8.187,-2.582 -16.93,1.969 -19.512,10.157l-9.357,29.669c-2.582,8.187 1.969,16.93 10.156,19.512l86.696,27.341c8.187,2.582 16.931,-1.969 19.513,-10.156l9.356,-29.669Z" style="fill:#29211f;"/><path d="M652.81,694.857c-2.176,-8.304 -10.685,-13.279 -18.989,-11.103l-87.936,23.045c-8.304,2.176 -13.279,10.686 -11.103,18.99l7.887,30.093c2.176,8.304 10.685,13.28 18.989,11.103l87.936,-23.045c8.304,-2.176 13.279,-10.685 11.103,-18.99l-7.887,-30.093Z" style="fill:#ccc591;"/><path d="M869.734,705.933c-1.673,-8.42 -9.868,-13.898 -18.288,-12.225l-89.162,17.716c-8.42,1.674 -13.898,9.868 -12.225,18.288l6.063,30.513c1.673,8.42 9.868,13.898 18.288,12.225l89.162,-17.717c8.42,-1.673 13.898,-9.867 12.225,-18.287l-6.063,-30.513Z" style="fill:#ccc591;"/><path d="M603.968,835.239c3.026,-8.034 -1.039,-17.013 -9.073,-20.039l-85.07,-32.044c-8.034,-3.026 -17.013,1.04 -20.039,9.074l-10.966,29.112c-3.026,8.034 1.039,17.013 9.073,20.039l85.07,32.044c8.034,3.026 17.013,-1.04 20.039,-9.073l10.966,-29.113Z" style="fill:#ccc591;"/><path d="M822.476,805.445c-2.263,-8.281 -10.824,-13.166 -19.105,-10.902l-87.688,23.97c-8.281,2.264 -13.166,10.825 -10.902,19.106l8.203,30.008c2.264,8.281 10.824,13.166 19.106,10.903l87.687,-23.971c8.281,-2.264 13.166,-10.825 10.902,-19.106l-8.203,-30.008Z" style="fill:#ccc591;"/><path d="M108.098,15.32l0,-1.2c0,-0.407 0.078,-0.699 0.234,-0.875c0.156,-0.176 0.363,-0.265 0.62,-0.265c0.258,0 0.465,0.089 0.621,0.265c0.156,0.176 0.234,0.468 0.234,0.875l0,4.74c0,0.421 -0.078,0.719 -0.234,0.895c-0.156,0.177 -0.363,0.265 -0.621,0.265c-0.23,0 -0.424,-0.082 -0.58,-0.244c-0.156,-0.163 -0.247,-0.428 -0.274,-0.794c-0.068,-1.139 -0.685,-2.15 -1.852,-3.031c-1.573,-1.207 -3.363,-1.811 -5.371,-1.811c-1.315,0 -2.556,0.292 -3.723,0.875c-0.868,0.42 -1.56,0.936 -2.075,1.546c-0.895,1.058 -1.607,2.231 -2.136,3.52c-0.38,0.949 -0.57,2.021 -0.57,3.214l0,2.991c0,2.55 0.922,4.764 2.767,6.643c1.845,1.878 3.988,2.817 6.429,2.817c1.465,0 2.777,-0.318 3.937,-0.956c1.159,-0.637 2.282,-1.6 3.367,-2.889c0.23,-0.285 0.488,-0.427 0.773,-0.427c0.244,0 0.441,0.075 0.59,0.224c0.149,0.149 0.224,0.339 0.224,0.569c0,0.312 -0.292,0.787 -0.875,1.425c-1.112,1.247 -2.363,2.187 -3.754,2.817c-1.39,0.631 -2.797,0.946 -4.221,0.946c-1.235,0 -2.489,-0.237 -3.764,-0.712c-0.977,-0.366 -1.784,-0.793 -2.421,-1.281c-0.638,-0.489 -1.421,-1.313 -2.35,-2.472c-0.929,-1.16 -1.563,-2.231 -1.902,-3.215c-0.339,-0.983 -0.509,-2.065 -0.509,-3.245l0,-3.479c0,-1.682 0.451,-3.401 1.353,-5.157c0.902,-1.757 2.136,-3.106 3.703,-4.049c1.566,-0.943 3.265,-1.414 5.096,-1.414c2.821,0 5.249,0.963 7.284,2.889Z" style="fill-rule:nonzero;"/><path d="M135.136,28.015c0,2.605 -0.932,4.829 -2.797,6.674c-1.865,1.844 -4.113,2.766 -6.744,2.766c-2.659,0 -4.917,-0.925 -6.775,-2.777c-1.859,-1.851 -2.788,-4.072 -2.788,-6.663c0,-2.604 0.929,-4.832 2.788,-6.683c1.858,-1.851 4.116,-2.777 6.775,-2.777c2.631,0 4.879,0.922 6.744,2.767c1.865,1.844 2.797,4.076 2.797,6.693Zm-1.729,0c0,-2.143 -0.763,-3.967 -2.289,-5.472c-1.526,-1.506 -3.374,-2.259 -5.544,-2.259c-2.17,0 -4.018,0.756 -5.544,2.269c-1.526,1.512 -2.289,3.333 -2.289,5.462c0,2.116 0.763,3.934 2.289,5.453c1.526,1.519 3.374,2.278 5.544,2.278c2.17,0 4.018,-0.756 5.544,-2.268c1.526,-1.512 2.289,-3.333 2.289,-5.463Z" style="fill-rule:nonzero;"/><path d="M160.14,28.015c0,2.605 -0.932,4.829 -2.797,6.674c-1.865,1.844 -4.113,2.766 -6.744,2.766c-2.659,0 -4.917,-0.925 -6.775,-2.777c-1.858,-1.851 -2.788,-4.072 -2.788,-6.663c0,-2.604 0.93,-4.832 2.788,-6.683c1.858,-1.851 4.116,-2.777 6.775,-2.777c2.631,0 4.879,0.922 6.744,2.767c1.865,1.844 2.797,4.076 2.797,6.693Zm-1.729,0c0,-2.143 -0.763,-3.967 -2.289,-5.472c-1.526,-1.506 -3.374,-2.259 -5.544,-2.259c-2.17,0 -4.018,0.756 -5.544,2.269c-1.526,1.512 -2.289,3.333 -2.289,5.462c0,2.116 0.763,3.934 2.289,5.453c1.526,1.519 3.374,2.278 5.544,2.278c2.17,0 4.018,-0.756 5.544,-2.268c1.526,-1.512 2.289,-3.333 2.289,-5.463Z" style="fill-rule:nonzero;"/><path d="M173.548,19.165l0,4.313c2.224,-2.007 3.889,-3.299 4.995,-3.875c1.105,-0.577 2.126,-0.865 3.061,-0.865c1.018,0 1.964,0.343 2.839,1.027c0.874,0.685 1.312,1.204 1.312,1.557c0,0.258 -0.085,0.471 -0.254,0.641c-0.17,0.169 -0.384,0.254 -0.641,0.254c-0.136,0 -0.251,-0.024 -0.346,-0.071c-0.095,-0.048 -0.271,-0.2 -0.529,-0.458c-0.475,-0.475 -0.889,-0.8 -1.241,-0.976c-0.353,-0.177 -0.699,-0.265 -1.038,-0.265c-0.746,0 -1.644,0.298 -2.696,0.895c-1.051,0.597 -2.872,2.055 -5.462,4.374l0,9.359l7.568,0c0.421,0 0.719,0.078 0.895,0.234c0.177,0.156 0.265,0.363 0.265,0.621c0,0.244 -0.088,0.447 -0.265,0.61c-0.176,0.163 -0.474,0.244 -0.895,0.244l-13.407,0c-0.407,0 -0.699,-0.078 -0.875,-0.234c-0.176,-0.156 -0.265,-0.356 -0.265,-0.6c0,-0.231 0.085,-0.424 0.255,-0.58c0.169,-0.156 0.464,-0.234 0.885,-0.234l4.13,0l0,-14.241l-3.154,0c-0.407,0 -0.698,-0.082 -0.874,-0.245c-0.177,-0.162 -0.265,-0.373 -0.265,-0.63c0,-0.244 0.085,-0.448 0.254,-0.611c0.17,-0.162 0.465,-0.244 0.885,-0.244l4.863,0Z" style="fill-rule:nonzero;"/><path d="M208.969,11.251l0,23.824l2.278,0c0.421,0 0.719,0.078 0.895,0.234c0.177,0.156 0.265,0.363 0.265,0.621c0,0.244 -0.088,0.447 -0.265,0.61c-0.176,0.163 -0.474,0.244 -0.895,0.244l-4.008,0l0,-3.398c-1.98,2.713 -4.496,4.069 -7.548,4.069c-1.546,0 -3.028,-0.41 -4.445,-1.23c-1.418,-0.821 -2.537,-1.991 -3.357,-3.51c-0.821,-1.519 -1.231,-3.086 -1.231,-4.7c0,-1.627 0.41,-3.197 1.231,-4.71c0.82,-1.512 1.939,-2.682 3.357,-3.509c1.417,-0.827 2.906,-1.241 4.466,-1.241c2.984,0 5.493,1.356 7.527,4.069l0,-9.644l-2.278,0c-0.421,0 -0.719,-0.081 -0.896,-0.244c-0.176,-0.163 -0.264,-0.373 -0.264,-0.63c0,-0.245 0.088,-0.448 0.264,-0.611c0.177,-0.163 0.475,-0.244 0.896,-0.244l4.008,0Zm-1.73,16.764c0,-2.17 -0.732,-4.001 -2.197,-5.493c-1.465,-1.492 -3.208,-2.238 -5.229,-2.238c-2.034,0 -3.784,0.746 -5.249,2.238c-1.465,1.492 -2.197,3.323 -2.197,5.493c0,2.157 0.732,3.985 2.197,5.483c1.465,1.499 3.215,2.248 5.249,2.248c2.021,0 3.764,-0.749 5.229,-2.248c1.465,-1.498 2.197,-3.326 2.197,-5.483Z" style="fill-rule:nonzero;"/><path d="M226.445,10.397l0,4.414l-2.523,0l0,-4.414l2.523,0Zm0.061,8.768l0,15.91l6.714,0c0.42,0 0.719,0.078 0.895,0.234c0.176,0.156 0.265,0.363 0.265,0.621c0,0.244 -0.089,0.447 -0.265,0.61c-0.176,0.163 -0.475,0.244 -0.895,0.244l-15.137,0c-0.407,0 -0.698,-0.081 -0.875,-0.244c-0.176,-0.163 -0.264,-0.366 -0.264,-0.61c0,-0.258 0.088,-0.465 0.264,-0.621c0.177,-0.156 0.468,-0.234 0.875,-0.234l6.714,0l0,-14.18l-4.985,0c-0.406,0 -0.701,-0.082 -0.885,-0.245c-0.183,-0.162 -0.274,-0.366 -0.274,-0.61c0,-0.258 0.088,-0.468 0.264,-0.631c0.177,-0.162 0.475,-0.244 0.895,-0.244l6.694,0Z" style="fill-rule:nonzero;"/><path d="M245.081,19.165l0,2.584c1.194,-1.207 2.272,-2.041 3.235,-2.502c0.963,-0.461 2.048,-0.692 3.255,-0.692c1.302,0 2.489,0.278 3.56,0.834c0.76,0.407 1.448,1.082 2.066,2.024c0.617,0.943 0.925,1.909 0.925,2.9l0,10.762l1.445,0c0.407,0 0.698,0.078 0.875,0.234c0.176,0.156 0.264,0.363 0.264,0.621c0,0.244 -0.088,0.447 -0.264,0.61c-0.177,0.163 -0.468,0.244 -0.875,0.244l-4.578,0c-0.42,0 -0.719,-0.081 -0.895,-0.244c-0.176,-0.163 -0.265,-0.366 -0.265,-0.61c0,-0.258 0.089,-0.465 0.265,-0.621c0.176,-0.156 0.475,-0.234 0.895,-0.234l1.424,0l0,-10.478c0,-1.207 -0.441,-2.227 -1.322,-3.062c-0.882,-0.834 -2.062,-1.251 -3.54,-1.251c-1.126,0 -2.103,0.227 -2.93,0.682c-0.827,0.454 -2.007,1.583 -3.54,3.387l0,10.722l1.933,0c0.407,0 0.698,0.078 0.875,0.234c0.176,0.156 0.264,0.363 0.264,0.621c0,0.244 -0.088,0.447 -0.264,0.61c-0.177,0.163 -0.468,0.244 -0.875,0.244l-5.575,0c-0.407,0 -0.698,-0.081 -0.875,-0.244c-0.176,-0.163 -0.264,-0.366 -0.264,-0.61c0,-0.258 0.088,-0.465 0.264,-0.621c0.177,-0.156 0.468,-0.234 0.875,-0.234l1.933,0l0,-14.18l-1.444,0c-0.407,0 -0.699,-0.082 -0.875,-0.245c-0.177,-0.162 -0.265,-0.373 -0.265,-0.63c0,-0.244 0.088,-0.448 0.265,-0.611c0.176,-0.162 0.468,-0.244 0.875,-0.244l3.153,0Z" style="fill-rule:nonzero;"/><path d="M280.522,36.784l0,-2.462c-2.482,2.089 -5.134,3.133 -7.955,3.133c-2.048,0 -3.648,-0.518 -4.801,-1.556c-1.153,-1.038 -1.73,-2.309 -1.73,-3.815c0,-1.654 0.76,-3.099 2.279,-4.333c1.519,-1.234 3.737,-1.852 6.653,-1.852c0.787,0 1.641,0.051 2.563,0.153c0.923,0.102 1.92,0.261 2.991,0.478l0,-2.767c0,-0.936 -0.434,-1.749 -1.302,-2.441c-0.868,-0.692 -2.17,-1.038 -3.906,-1.038c-1.329,0 -3.194,0.387 -5.595,1.16c-0.434,0.136 -0.712,0.203 -0.834,0.203c-0.217,0 -0.404,-0.081 -0.56,-0.244c-0.156,-0.163 -0.234,-0.366 -0.234,-0.61c0,-0.231 0.068,-0.414 0.204,-0.549c0.19,-0.204 0.956,-0.482 2.299,-0.835c2.116,-0.569 3.716,-0.854 4.801,-0.854c2.157,0 3.839,0.532 5.046,1.597c1.207,1.065 1.81,2.268 1.81,3.611l0,11.312l2.279,0c0.421,0 0.719,0.078 0.895,0.234c0.177,0.156 0.265,0.363 0.265,0.621c0,0.244 -0.088,0.447 -0.265,0.61c-0.176,0.163 -0.474,0.244 -0.895,0.244l-4.008,0Zm0,-8.504c-0.8,-0.231 -1.648,-0.4 -2.543,-0.509c-0.895,-0.108 -1.838,-0.163 -2.828,-0.163c-2.482,0 -4.422,0.536 -5.819,1.608c-1.058,0.8 -1.587,1.756 -1.587,2.868c0,1.031 0.404,1.899 1.211,2.605c0.807,0.705 1.984,1.057 3.53,1.057c1.478,0 2.852,-0.295 4.12,-0.885c1.268,-0.59 2.573,-1.529 3.916,-2.817l0,-3.764Z" style="fill-rule:nonzero;"/><path d="M297.103,19.165l9.278,0c0.407,0 0.698,0.082 0.875,0.244c0.176,0.163 0.264,0.373 0.264,0.631c0,0.244 -0.088,0.448 -0.264,0.61c-0.177,0.163 -0.468,0.245 -0.875,0.245l-9.278,0l0,11.372c0,0.991 0.397,1.818 1.191,2.483c0.793,0.664 1.956,0.996 3.489,0.996c1.153,0 2.4,-0.172 3.743,-0.518c1.343,-0.346 2.387,-0.736 3.133,-1.17c0.272,-0.176 0.495,-0.265 0.672,-0.265c0.217,0 0.407,0.085 0.569,0.255c0.163,0.169 0.245,0.369 0.245,0.6c0,0.203 -0.089,0.393 -0.265,0.57c-0.434,0.447 -1.489,0.932 -3.164,1.454c-1.675,0.522 -3.279,0.783 -4.811,0.783c-1.994,0 -3.581,-0.467 -4.761,-1.403c-1.18,-0.936 -1.77,-2.198 -1.77,-3.785l0,-11.372l-3.153,0c-0.407,0 -0.699,-0.082 -0.875,-0.245c-0.177,-0.162 -0.265,-0.373 -0.265,-0.63c0,-0.244 0.088,-0.448 0.265,-0.611c0.176,-0.162 0.468,-0.244 0.875,-0.244l3.153,0l0,-5.045c0,-0.407 0.081,-0.699 0.244,-0.875c0.163,-0.176 0.366,-0.265 0.611,-0.265c0.257,0 0.467,0.089 0.63,0.265c0.163,0.176 0.244,0.468 0.244,0.875l0,5.045Z" style="fill-rule:nonzero;"/><path d="M334.864,28.382l-17.416,0c0.299,2.21 1.224,3.991 2.777,5.34c1.553,1.35 3.476,2.024 5.768,2.024c1.275,0 2.611,-0.21 4.008,-0.63c1.397,-0.421 2.537,-0.977 3.418,-1.668c0.258,-0.204 0.482,-0.306 0.672,-0.306c0.217,0 0.407,0.085 0.569,0.255c0.163,0.169 0.244,0.369 0.244,0.6c0,0.23 -0.108,0.454 -0.325,0.671c-0.651,0.678 -1.807,1.312 -3.469,1.902c-1.661,0.59 -3.367,0.885 -5.117,0.885c-2.929,0 -5.374,-0.959 -7.334,-2.878c-1.96,-1.92 -2.94,-4.242 -2.94,-6.969c0,-2.482 0.919,-4.611 2.757,-6.388c1.838,-1.777 4.113,-2.665 6.826,-2.665c2.794,0 5.093,0.912 6.897,2.736c1.803,1.825 2.692,4.188 2.665,7.091Zm-1.73,-1.73c-0.339,-1.885 -1.23,-3.418 -2.675,-4.598c-1.444,-1.18 -3.164,-1.77 -5.157,-1.77c-1.994,0 -3.71,0.583 -5.148,1.75c-1.437,1.166 -2.333,2.706 -2.685,4.618l15.665,0Z" style="fill-rule:nonzero;"/><path d="M358.993,11.251l0,23.824l2.279,0c0.42,0 0.718,0.078 0.895,0.234c0.176,0.156 0.264,0.363 0.264,0.621c0,0.244 -0.088,0.447 -0.264,0.61c-0.177,0.163 -0.475,0.244 -0.895,0.244l-4.008,0l0,-3.398c-1.981,2.713 -4.497,4.069 -7.548,4.069c-1.547,0 -3.028,-0.41 -4.446,-1.23c-1.417,-0.821 -2.536,-1.991 -3.357,-3.51c-0.82,-1.519 -1.231,-3.086 -1.231,-4.7c0,-1.627 0.411,-3.197 1.231,-4.71c0.821,-1.512 1.94,-2.682 3.357,-3.509c1.418,-0.827 2.906,-1.241 4.466,-1.241c2.984,0 5.493,1.356 7.528,4.069l0,-9.644l-2.279,0c-0.42,0 -0.719,-0.081 -0.895,-0.244c-0.176,-0.163 -0.265,-0.373 -0.265,-0.63c0,-0.245 0.089,-0.448 0.265,-0.611c0.176,-0.163 0.475,-0.244 0.895,-0.244l4.008,0Zm-1.729,16.764c0,-2.17 -0.733,-4.001 -2.198,-5.493c-1.464,-1.492 -3.207,-2.238 -5.228,-2.238c-2.035,0 -3.784,0.746 -5.249,2.238c-1.465,1.492 -2.198,3.323 -2.198,5.493c0,2.157 0.733,3.985 2.198,5.483c1.465,1.499 3.214,2.248 5.249,2.248c2.021,0 3.764,-0.749 5.228,-2.248c1.465,-1.498 2.198,-3.326 2.198,-5.483Z" style="fill-rule:nonzero;"/><path d="M520.5,13.933l0,14.282c0,2.401 -0.8,4.415 -2.401,6.043c-1.6,1.628 -3.533,2.441 -5.798,2.441c-1.519,0 -2.869,-0.332 -4.049,-0.997c-1.18,-0.664 -2.183,-1.671 -3.011,-3.021c-0.827,-1.349 -1.241,-2.838 -1.241,-4.466l0,-14.282l-1.444,0c-0.407,0 -0.699,-0.078 -0.875,-0.234c-0.176,-0.156 -0.265,-0.363 -0.265,-0.62c0,-0.258 0.095,-0.475 0.285,-0.651c0.163,-0.136 0.448,-0.204 0.855,-0.204l6.307,0c0.407,0 0.698,0.078 0.875,0.234c0.176,0.156 0.264,0.363 0.264,0.621c0,0.257 -0.088,0.464 -0.264,0.62c-0.177,0.156 -0.468,0.234 -0.875,0.234l-3.154,0l0,14.282c0,1.886 0.644,3.486 1.933,4.802c1.289,1.316 2.814,1.973 4.578,1.973c1.125,0 2.153,-0.257 3.082,-0.773c0.929,-0.515 1.743,-1.309 2.441,-2.38c0.699,-1.072 1.048,-2.279 1.048,-3.622l0,-14.282l-3.153,0c-0.407,0 -0.699,-0.078 -0.875,-0.234c-0.177,-0.156 -0.265,-0.363 -0.265,-0.62c0,-0.258 0.088,-0.465 0.265,-0.621c0.176,-0.156 0.468,-0.234 0.875,-0.234l6.307,0c0.406,0 0.698,0.078 0.874,0.234c0.177,0.156 0.265,0.363 0.265,0.621c0,0.257 -0.088,0.464 -0.265,0.62c-0.176,0.156 -0.468,0.234 -0.874,0.234l-1.445,0Z" style="fill-rule:nonzero;"/><path d="M531.71,18.409l0,2.584c1.194,-1.207 2.272,-2.041 3.235,-2.502c0.963,-0.462 2.048,-0.692 3.255,-0.692c1.302,0 2.489,0.278 3.561,0.834c0.759,0.407 1.448,1.082 2.065,2.024c0.617,0.943 0.925,1.909 0.925,2.899l0,10.763l1.445,0c0.407,0 0.698,0.078 0.875,0.234c0.176,0.156 0.264,0.363 0.264,0.621c0,0.244 -0.088,0.447 -0.264,0.61c-0.177,0.163 -0.468,0.244 -0.875,0.244l-4.578,0c-0.42,0 -0.719,-0.081 -0.895,-0.244c-0.176,-0.163 -0.264,-0.366 -0.264,-0.61c0,-0.258 0.088,-0.465 0.264,-0.621c0.176,-0.156 0.475,-0.234 0.895,-0.234l1.424,0l0,-10.478c0,-1.207 -0.44,-2.227 -1.322,-3.062c-0.882,-0.834 -2.062,-1.251 -3.54,-1.251c-1.126,0 -2.102,0.227 -2.93,0.682c-0.827,0.454 -2.007,1.583 -3.54,3.387l0,10.722l1.933,0c0.407,0 0.698,0.078 0.875,0.234c0.176,0.156 0.264,0.363 0.264,0.621c0,0.244 -0.088,0.447 -0.264,0.61c-0.177,0.163 -0.468,0.244 -0.875,0.244l-5.575,0c-0.406,0 -0.698,-0.081 -0.874,-0.244c-0.177,-0.163 -0.265,-0.366 -0.265,-0.61c0,-0.258 0.088,-0.465 0.265,-0.621c0.176,-0.156 0.468,-0.234 0.874,-0.234l1.933,0l0,-14.18l-1.444,0c-0.407,0 -0.699,-0.082 -0.875,-0.245c-0.176,-0.162 -0.265,-0.373 -0.265,-0.63c0,-0.244 0.089,-0.448 0.265,-0.611c0.176,-0.162 0.468,-0.244 0.875,-0.244l3.153,0Z" style="fill-rule:nonzero;"/><rect x="553.52" y="23.028" width="17.436" height="2.441" style="fill-rule:nonzero;"/><path d="M594.373,20.139l0,-0.57c0,-0.421 0.081,-0.719 0.244,-0.895c0.163,-0.177 0.366,-0.265 0.61,-0.265c0.258,0 0.468,0.088 0.631,0.265c0.163,0.176 0.244,0.474 0.244,0.895l0,3.865c-0.013,0.421 -0.098,0.719 -0.254,0.896c-0.156,0.176 -0.363,0.264 -0.621,0.264c-0.23,0 -0.423,-0.078 -0.579,-0.234c-0.156,-0.156 -0.248,-0.417 -0.275,-0.783c-0.081,-0.963 -0.716,-1.879 -1.902,-2.747c-1.187,-0.868 -2.784,-1.302 -4.792,-1.302c-2.536,0 -4.462,0.794 -5.778,2.381c-1.315,1.586 -1.973,3.404 -1.973,5.452c0,2.211 0.726,4.035 2.177,5.473c1.451,1.438 3.33,2.156 5.635,2.156c1.33,0 2.683,-0.244 4.059,-0.732c1.377,-0.488 2.621,-1.275 3.734,-2.36c0.284,-0.271 0.535,-0.407 0.752,-0.407c0.231,0 0.424,0.078 0.58,0.234c0.156,0.156 0.234,0.349 0.234,0.58c0,0.583 -0.685,1.322 -2.055,2.217c-2.21,1.452 -4.672,2.177 -7.385,2.177c-2.753,0 -5.015,-0.878 -6.785,-2.634c-1.77,-1.757 -2.655,-3.985 -2.655,-6.684c0,-2.753 0.905,-5.038 2.716,-6.856c1.811,-1.817 4.093,-2.726 6.846,-2.726c2.618,0 4.815,0.78 6.592,2.34Z" style="fill-rule:nonzero;"/><path d="M621.798,27.259c0,2.604 -0.932,4.829 -2.797,6.673c-1.865,1.845 -4.113,2.767 -6.745,2.767c-2.658,0 -4.916,-0.925 -6.775,-2.777c-1.858,-1.851 -2.787,-4.072 -2.787,-6.663c0,-2.604 0.929,-4.832 2.787,-6.683c1.859,-1.851 4.117,-2.777 6.775,-2.777c2.632,0 4.88,0.922 6.745,2.767c1.865,1.844 2.797,4.076 2.797,6.693Zm-1.729,0c0,-2.143 -0.763,-3.967 -2.289,-5.473c-1.526,-1.505 -3.374,-2.258 -5.544,-2.258c-2.17,0 -4.018,0.756 -5.544,2.269c-1.526,1.512 -2.289,3.333 -2.289,5.462c0,2.116 0.763,3.934 2.289,5.453c1.526,1.519 3.374,2.278 5.544,2.278c2.17,0 4.018,-0.756 5.544,-2.268c1.526,-1.512 2.289,-3.333 2.289,-5.463Z" style="fill-rule:nonzero;"/><path d="M646.802,27.259c0,2.604 -0.932,4.829 -2.797,6.673c-1.865,1.845 -4.113,2.767 -6.745,2.767c-2.658,0 -4.916,-0.925 -6.775,-2.777c-1.858,-1.851 -2.787,-4.072 -2.787,-6.663c0,-2.604 0.929,-4.832 2.787,-6.683c1.859,-1.851 4.117,-2.777 6.775,-2.777c2.632,0 4.88,0.922 6.745,2.767c1.865,1.844 2.797,4.076 2.797,6.693Zm-1.729,0c0,-2.143 -0.763,-3.967 -2.289,-5.473c-1.526,-1.505 -3.374,-2.258 -5.544,-2.258c-2.17,0 -4.018,0.756 -5.544,2.269c-1.526,1.512 -2.289,3.333 -2.289,5.462c0,2.116 0.763,3.934 2.289,5.453c1.526,1.519 3.374,2.278 5.544,2.278c2.17,0 4.018,-0.756 5.544,-2.268c1.526,-1.512 2.289,-3.333 2.289,-5.463Z" style="fill-rule:nonzero;"/><path d="M660.21,18.409l0,4.313c2.224,-2.007 3.889,-3.299 4.994,-3.875c1.106,-0.577 2.126,-0.865 3.062,-0.865c1.017,0 1.963,0.342 2.838,1.027c0.875,0.685 1.313,1.204 1.313,1.557c0,0.257 -0.085,0.471 -0.255,0.641c-0.169,0.169 -0.383,0.254 -0.641,0.254c-0.135,0 -0.251,-0.024 -0.345,-0.071c-0.095,-0.048 -0.272,-0.2 -0.529,-0.458c-0.475,-0.475 -0.889,-0.8 -1.241,-0.977c-0.353,-0.176 -0.699,-0.264 -1.038,-0.264c-0.746,0 -1.645,0.298 -2.696,0.895c-1.051,0.597 -2.872,2.055 -5.462,4.374l0,9.359l7.568,0c0.42,0 0.719,0.078 0.895,0.234c0.176,0.156 0.265,0.363 0.265,0.621c0,0.244 -0.089,0.447 -0.265,0.61c-0.176,0.163 -0.475,0.244 -0.895,0.244l-13.407,0c-0.407,0 -0.699,-0.078 -0.875,-0.234c-0.177,-0.156 -0.265,-0.356 -0.265,-0.6c0,-0.231 0.085,-0.424 0.255,-0.58c0.169,-0.156 0.464,-0.234 0.885,-0.234l4.13,0l0,-14.241l-3.154,0c-0.407,0 -0.698,-0.082 -0.875,-0.245c-0.176,-0.162 -0.264,-0.373 -0.264,-0.63c0,-0.244 0.085,-0.448 0.254,-0.611c0.17,-0.162 0.465,-0.244 0.885,-0.244l4.863,0Z" style="fill-rule:nonzero;"/><path d="M695.63,10.495l0,23.824l2.279,0c0.42,0 0.719,0.078 0.895,0.234c0.176,0.156 0.265,0.363 0.265,0.621c0,0.244 -0.089,0.447 -0.265,0.61c-0.176,0.163 -0.475,0.244 -0.895,0.244l-4.008,0l0,-3.398c-1.98,2.713 -4.496,4.069 -7.548,4.069c-1.546,0 -3.028,-0.41 -4.445,-1.23c-1.418,-0.821 -2.537,-1.991 -3.357,-3.51c-0.821,-1.519 -1.231,-3.086 -1.231,-4.7c0,-1.627 0.41,-3.197 1.231,-4.71c0.82,-1.512 1.939,-2.682 3.357,-3.509c1.417,-0.827 2.905,-1.241 4.465,-1.241c2.984,0 5.493,1.356 7.528,4.069l0,-9.644l-2.279,0c-0.42,0 -0.719,-0.081 -0.895,-0.244c-0.176,-0.163 -0.264,-0.373 -0.264,-0.631c0,-0.244 0.088,-0.447 0.264,-0.61c0.176,-0.163 0.475,-0.244 0.895,-0.244l4.008,0Zm-1.729,16.764c0,-2.17 -0.732,-4.001 -2.197,-5.493c-1.465,-1.492 -3.208,-2.238 -5.229,-2.238c-2.034,0 -3.784,0.746 -5.249,2.238c-1.465,1.492 -2.197,3.323 -2.197,5.493c0,2.157 0.732,3.985 2.197,5.483c1.465,1.499 3.215,2.248 5.249,2.248c2.021,0 3.764,-0.749 5.229,-2.248c1.465,-1.498 2.197,-3.326 2.197,-5.483Z" style="fill-rule:nonzero;"/><path d="M713.107,9.64l0,4.415l-2.523,0l0,-4.415l2.523,0Zm0.061,8.769l0,15.91l6.714,0c0.42,0 0.718,0.078 0.895,0.234c0.176,0.156 0.264,0.363 0.264,0.621c0,0.244 -0.088,0.447 -0.264,0.61c-0.177,0.163 -0.475,0.244 -0.895,0.244l-15.137,0c-0.407,0 -0.699,-0.081 -0.875,-0.244c-0.176,-0.163 -0.264,-0.366 -0.264,-0.61c0,-0.258 0.088,-0.465 0.264,-0.621c0.176,-0.156 0.468,-0.234 0.875,-0.234l6.714,0l0,-14.18l-4.985,0c-0.407,0 -0.702,-0.082 -0.885,-0.245c-0.183,-0.162 -0.274,-0.366 -0.274,-0.61c0,-0.258 0.088,-0.468 0.264,-0.631c0.176,-0.162 0.475,-0.244 0.895,-0.244l6.694,0Z" style="fill-rule:nonzero;"/><path d="M731.743,18.409l0,2.584c1.193,-1.207 2.272,-2.041 3.235,-2.502c0.963,-0.462 2.048,-0.692 3.255,-0.692c1.302,0 2.489,0.278 3.56,0.834c0.76,0.407 1.448,1.082 2.065,2.024c0.617,0.943 0.926,1.909 0.926,2.899l0,10.763l1.444,0c0.407,0 0.699,0.078 0.875,0.234c0.177,0.156 0.265,0.363 0.265,0.621c0,0.244 -0.088,0.447 -0.265,0.61c-0.176,0.163 -0.468,0.244 -0.875,0.244l-4.577,0c-0.421,0 -0.719,-0.081 -0.895,-0.244c-0.177,-0.163 -0.265,-0.366 -0.265,-0.61c0,-0.258 0.088,-0.465 0.265,-0.621c0.176,-0.156 0.474,-0.234 0.895,-0.234l1.424,0l0,-10.478c0,-1.207 -0.441,-2.227 -1.322,-3.062c-0.882,-0.834 -2.062,-1.251 -3.541,-1.251c-1.125,0 -2.102,0.227 -2.929,0.682c-0.828,0.454 -2.008,1.583 -3.54,3.387l0,10.722l1.933,0c0.406,0 0.698,0.078 0.874,0.234c0.177,0.156 0.265,0.363 0.265,0.621c0,0.244 -0.088,0.447 -0.265,0.61c-0.176,0.163 -0.468,0.244 -0.874,0.244l-5.575,0c-0.407,0 -0.699,-0.081 -0.875,-0.244c-0.176,-0.163 -0.264,-0.366 -0.264,-0.61c0,-0.258 0.088,-0.465 0.264,-0.621c0.176,-0.156 0.468,-0.234 0.875,-0.234l1.933,0l0,-14.18l-1.445,0c-0.407,0 -0.698,-0.082 -0.875,-0.245c-0.176,-0.162 -0.264,-0.373 -0.264,-0.63c0,-0.244 0.088,-0.448 0.264,-0.611c0.177,-0.162 0.468,-0.244 0.875,-0.244l3.154,0Z" style="fill-rule:nonzero;"/><path d="M767.184,36.028l0,-2.462c-2.482,2.089 -5.134,3.133 -7.955,3.133c-2.048,0 -3.649,-0.518 -4.802,-1.556c-1.152,-1.038 -1.729,-2.309 -1.729,-3.815c0,-1.654 0.76,-3.099 2.279,-4.333c1.519,-1.234 3.737,-1.852 6.653,-1.852c0.786,0 1.641,0.051 2.563,0.153c0.922,0.102 1.919,0.261 2.991,0.478l0,-2.767c0,-0.936 -0.434,-1.75 -1.302,-2.441c-0.868,-0.692 -2.17,-1.038 -3.907,-1.038c-1.329,0 -3.194,0.387 -5.594,1.16c-0.434,0.135 -0.712,0.203 -0.835,0.203c-0.217,0 -0.403,-0.081 -0.559,-0.244c-0.156,-0.163 -0.234,-0.366 -0.234,-0.61c0,-0.231 0.068,-0.414 0.203,-0.55c0.19,-0.203 0.957,-0.481 2.299,-0.834c2.116,-0.569 3.717,-0.854 4.802,-0.854c2.156,0 3.838,0.532 5.045,1.597c1.208,1.065 1.811,2.268 1.811,3.611l0,11.312l2.279,0c0.42,0 0.719,0.078 0.895,0.234c0.176,0.156 0.264,0.363 0.264,0.621c0,0.244 -0.088,0.447 -0.264,0.61c-0.176,0.163 -0.475,0.244 -0.895,0.244l-4.008,0Zm0,-8.504c-0.8,-0.231 -1.648,-0.4 -2.543,-0.509c-0.895,-0.108 -1.838,-0.163 -2.828,-0.163c-2.482,0 -4.422,0.536 -5.819,1.608c-1.058,0.8 -1.587,1.756 -1.587,2.868c0,1.031 0.404,1.899 1.211,2.604c0.807,0.706 1.983,1.058 3.53,1.058c1.478,0 2.851,-0.295 4.119,-0.885c1.269,-0.59 2.574,-1.529 3.917,-2.817l0,-3.764Z" style="fill-rule:nonzero;"/><path d="M783.765,18.409l9.277,0c0.407,0 0.699,0.082 0.875,0.244c0.177,0.163 0.265,0.373 0.265,0.631c0,0.244 -0.088,0.448 -0.265,0.61c-0.176,0.163 -0.468,0.245 -0.875,0.245l-9.277,0l0,11.372c0,0.991 0.397,1.818 1.19,2.482c0.794,0.665 1.957,0.997 3.489,0.997c1.153,0 2.401,-0.173 3.744,-0.518c1.343,-0.346 2.387,-0.736 3.133,-1.17c0.271,-0.177 0.495,-0.265 0.671,-0.265c0.217,0 0.407,0.085 0.57,0.255c0.163,0.169 0.244,0.369 0.244,0.6c0,0.203 -0.088,0.393 -0.264,0.569c-0.434,0.448 -1.489,0.933 -3.164,1.455c-1.675,0.522 -3.279,0.783 -4.812,0.783c-1.993,0 -3.58,-0.468 -4.76,-1.403c-1.18,-0.936 -1.77,-2.198 -1.77,-3.785l0,-11.372l-3.154,0c-0.407,0 -0.698,-0.082 -0.875,-0.245c-0.176,-0.162 -0.264,-0.373 -0.264,-0.63c0,-0.244 0.088,-0.448 0.264,-0.611c0.177,-0.162 0.468,-0.244 0.875,-0.244l3.154,0l0,-5.045c0,-0.407 0.081,-0.699 0.244,-0.875c0.163,-0.177 0.366,-0.265 0.61,-0.265c0.258,0 0.468,0.088 0.631,0.265c0.163,0.176 0.244,0.468 0.244,0.875l0,5.045Z" style="fill-rule:nonzero;"/><path d="M821.525,27.625l-17.415,0c0.298,2.211 1.224,3.992 2.777,5.341c1.553,1.35 3.476,2.024 5.768,2.024c1.275,0 2.611,-0.21 4.008,-0.63c1.397,-0.421 2.536,-0.977 3.418,-1.669c0.258,-0.203 0.481,-0.305 0.671,-0.305c0.217,0 0.407,0.085 0.57,0.255c0.163,0.169 0.244,0.369 0.244,0.6c0,0.23 -0.108,0.454 -0.325,0.671c-0.651,0.678 -1.808,1.312 -3.469,1.902c-1.662,0.59 -3.367,0.885 -5.117,0.885c-2.93,0 -5.374,-0.959 -7.334,-2.878c-1.96,-1.92 -2.94,-4.242 -2.94,-6.969c0,-2.482 0.919,-4.611 2.757,-6.388c1.837,-1.777 4.113,-2.665 6.825,-2.665c2.794,0 5.093,0.912 6.897,2.736c1.804,1.825 2.693,4.188 2.665,7.09Zm-1.729,-1.729c-0.339,-1.885 -1.231,-3.418 -2.675,-4.598c-1.445,-1.18 -3.164,-1.77 -5.158,-1.77c-1.994,0 -3.709,0.583 -5.147,1.75c-1.438,1.166 -2.333,2.706 -2.686,4.618l15.666,0Z" style="fill-rule:nonzero;"/><path d="M845.655,10.495l0,23.824l2.278,0c0.421,0 0.719,0.078 0.896,0.234c0.176,0.156 0.264,0.363 0.264,0.621c0,0.244 -0.088,0.447 -0.264,0.61c-0.177,0.163 -0.475,0.244 -0.896,0.244l-4.008,0l0,-3.398c-1.98,2.713 -4.496,4.069 -7.548,4.069c-1.546,0 -3.028,-0.41 -4.445,-1.23c-1.417,-0.821 -2.536,-1.991 -3.357,-3.51c-0.821,-1.519 -1.231,-3.086 -1.231,-4.7c0,-1.627 0.41,-3.197 1.231,-4.71c0.821,-1.512 1.94,-2.682 3.357,-3.509c1.417,-0.827 2.906,-1.241 4.466,-1.241c2.984,0 5.493,1.356 7.527,4.069l0,-9.644l-2.278,0c-0.421,0 -0.719,-0.081 -0.895,-0.244c-0.177,-0.163 -0.265,-0.373 -0.265,-0.631c0,-0.244 0.088,-0.447 0.265,-0.61c0.176,-0.163 0.474,-0.244 0.895,-0.244l4.008,0Zm-1.73,16.764c0,-2.17 -0.732,-4.001 -2.197,-5.493c-1.465,-1.492 -3.208,-2.238 -5.229,-2.238c-2.034,0 -3.784,0.746 -5.249,2.238c-1.464,1.492 -2.197,3.323 -2.197,5.493c0,2.157 0.733,3.985 2.197,5.483c1.465,1.499 3.215,2.248 5.249,2.248c2.021,0 3.764,-0.749 5.229,-2.248c1.465,-1.498 2.197,-3.326 2.197,-5.483Z" style="fill-rule:nonzero;"/></svg>