<?xml version="1.0" encoding="UTF-8" standalone="no"?><!DOCTYPE svg PUBLIC "-//W3C//DTD SVG 1.1//EN" "http://www.w3.org/Graphics/SVG/1.1/DTD/svg11.dtd"><svg width="100%" height="100%" viewBox="0 0 900 900" version="1.1" xmlns="http://www.w3.org/2000/svg" xmlns:xlink="http://www.w3.org/1999/xlink" xml:space="preserve" xmlns:serif="http://www.serif.com/" style="fill-rule:evenodd;clip-rule:evenodd;stroke-linejoin:round;stroke-miterlimit:2;"><path d="M441.376,159.813c0,-59.545 -48.343,-107.888 -107.888,-107.888l-215.775,0c-59.545,0 -107.887,48.343 -107.887,107.888l0,621.469c0,59.545 48.342,107.888 107.887,107.888l215.775,0c59.545,0 107.888,-48.343 107.888,-107.888l0,-621.469Z" style="fill:#e6e6e6;"/><path d="M890.531,159.813c0,-59.545 -48.342,-107.888 -107.887,-107.888l-215.775,0c-59.545,0 -107.888,48.343 -107.888,107.888l0,621.469c0,59.545 48.343,107.888 107.888,107.888l215.775,0c59.545,0 107.887,-48.343 107.887,-107.888l0,-621.469Z" style="fill:#e6e6e6;"/><path d="M237.594,104.862c0.709,-8.556 -5.662,-16.077 -14.218,-16.785l-90.594,-7.501c-8.556,-0.709 -16.077,5.662 -16.786,14.218l-2.567,31.003c-0.708,8.555 5.663,16.077 14.219,16.785l90.594,7.501c8.556,0.708 16.077,-5.663 16.785,-14.218l2.567,-31.003Z" style="fill:#798e87;"/><path d="M361.531,115.123c0.708,-8.555 -5.663,-16.076 -14.219,-16.785l-90.594,-7.501c-8.556,-0.708 -16.077,5.663 -16.785,14.218l-2.567,31.003c-0.709,8.556 5.662,16.077 14.218,16.786l90.595,7.501c8.555,0.708 16.076,-5.663 16.785,-14.219l2.567,-31.003Z" style="fill:#ccc591;"/><path d="M232.176,170.307c0.708,-8.555 -5.663,-16.076 -14.218,-16.785l-90.595,-7.501c-8.556,-0.708 -16.077,5.663 -16.785,14.218l-2.567,31.004c-0.709,8.555 5.662,16.076 14.218,16.785l90.595,7.501c8.555,0.708 16.076,-5.663 16.785,-14.218l2.567,-31.004Z" style="fill:#c27d38;"/><path d="M356.112,180.569c0.708,-8.556 -5.663,-16.077 -14.218,-16.785l-90.595,-7.501c-8.556,-0.709 -16.077,5.662 -16.785,14.218l-2.567,31.003c-0.708,8.556 5.662,16.077 14.218,16.785l90.595,7.501c8.555,0.709 16.076,-5.662 16.785,-14.218l2.567,-31.003Z" style="fill:#29211f;"/><path d="M218.372,298.256c-4.403,-7.369 -13.961,-9.777 -21.331,-5.373l-78.035,46.628c-7.369,4.404 -9.777,13.962 -5.373,21.332l15.957,26.705c4.403,7.369 13.962,9.777 21.331,5.373l78.035,-46.629c7.369,-4.403 9.777,-13.961 5.374,-21.331l-15.958,-26.705Z" style="fill:#798e87;"/><path d="M325.126,234.467c-4.404,-7.37 -13.962,-9.778 -21.331,-5.374l-78.035,46.629c-7.369,4.403 -9.777,13.961 -5.374,21.331l15.958,26.705c4.403,7.369 13.961,9.777 21.331,5.374l78.034,-46.629c7.37,-4.404 9.778,-13.962 5.374,-21.331l-15.957,-26.705Z" style="fill:#ccc591;"/><path d="M252.057,354.629c-4.404,-7.37 -13.962,-9.778 -21.331,-5.374l-78.035,46.629c-7.369,4.403 -9.777,13.961 -5.374,21.331l15.958,26.705c4.403,7.369 13.961,9.777 21.331,5.374l78.034,-46.629c7.37,-4.404 9.778,-13.962 5.374,-21.331l-15.957,-26.705Z" style="fill:#c27d38;"/><path d="M358.811,290.839c-4.404,-7.369 -13.962,-9.777 -21.331,-5.374l-78.035,46.629c-7.37,4.404 -9.777,13.962 -5.374,21.331l15.957,26.705c4.404,7.37 13.962,9.778 21.331,5.374l78.035,-46.629c7.37,-4.403 9.778,-13.962 5.374,-21.331l-15.957,-26.705Z" style="fill:#29211f;"/><path d="M190.136,493.129c3.478,-7.849 -0.072,-17.045 -7.921,-20.522l-83.113,-36.822c-7.849,-3.477 -17.045,0.072 -20.522,7.921l-12.601,28.443c-3.477,7.849 0.072,17.045 7.921,20.522l83.113,36.822c7.85,3.477 17.045,-0.072 20.522,-7.921l12.601,-28.443Z" style="fill:#798e87;"/><path d="M303.838,543.501c3.477,-7.849 -0.072,-17.045 -7.921,-20.522l-83.114,-36.821c-7.849,-3.477 -17.044,0.072 -20.521,7.921l-12.601,28.443c-3.478,7.849 0.072,17.045 7.921,20.522l83.113,36.821c7.849,3.478 17.045,-0.072 20.522,-7.921l12.601,-28.443Z" style="fill:#ccc591;"/><path d="M163.537,553.17c3.477,-7.849 -0.072,-17.045 -7.921,-20.522l-83.114,-36.821c-7.849,-3.478 -17.045,0.072 -20.522,7.921l-12.601,28.443c-3.477,7.849 0.072,17.044 7.921,20.522l83.114,36.821c7.849,3.477 17.044,-0.072 20.522,-7.921l12.601,-28.443Z" style="fill:#c27d38;"/><path d="M277.238,603.542c3.478,-7.849 -0.072,-17.044 -7.921,-20.521l-83.113,-36.822c-7.849,-3.477 -17.045,0.072 -20.522,7.921l-12.601,28.443c-3.477,7.849 0.072,17.045 7.921,20.522l83.113,36.822c7.849,3.477 17.045,-0.072 20.522,-7.921l12.601,-28.444Z" style="fill:#29211f;"/><path d="M177.043,720.1c-1.123,-8.511 -8.945,-14.509 -17.456,-13.387l-90.124,11.889c-8.511,1.122 -14.509,8.944 -13.386,17.455l4.068,30.842c1.123,8.511 8.944,14.51 17.455,13.387l90.124,-11.888c8.511,-1.123 14.51,-8.944 13.387,-17.456l-4.068,-30.842Z" style="fill:#798e87;"/><path d="M300.335,703.837c-1.123,-8.511 -8.944,-14.51 -17.455,-13.387l-90.124,11.888c-8.512,1.123 -14.51,8.944 -13.387,17.455l4.068,30.843c1.123,8.511 8.944,14.509 17.455,13.386l90.124,-11.888c8.512,-1.123 14.51,-8.944 13.387,-17.455l-4.068,-30.842Z" style="fill:#ccc591;"/><path d="M185.631,785.206c-1.123,-8.511 -8.944,-14.51 -17.455,-13.387l-90.124,11.888c-8.512,1.123 -14.51,8.945 -13.387,17.456l4.068,30.842c1.123,8.511 8.944,14.509 17.455,13.387l90.124,-11.889c8.511,-1.122 14.51,-8.944 13.387,-17.455l-4.068,-30.842Z" style="fill:#c27d38;"/><path d="M308.923,768.942c-1.123,-8.511 -8.944,-14.509 -17.455,-13.387l-90.124,11.889c-8.511,1.123 -14.51,8.944 -13.387,17.455l4.068,30.842c1.123,8.511 8.944,14.51 17.456,13.387l90.124,-11.888c8.511,-1.123 14.509,-8.944 13.386,-17.456l-4.068,-30.842Z" style="fill:#29211f;"/><path d="M692.785,86.177c-0.882,-8.539 -8.532,-14.755 -17.071,-13.873l-90.423,9.347c-8.539,0.882 -14.756,8.532 -13.873,17.071l3.199,30.945c0.882,8.539 8.532,14.755 17.071,13.872l90.423,-9.346c8.539,-0.883 14.756,-8.532 13.873,-17.071l-3.199,-30.945Z" style="fill:#798e87;"/><path d="M816.487,73.391c-0.883,-8.539 -8.532,-14.756 -17.072,-13.873l-90.423,9.346c-8.539,0.883 -14.755,8.533 -13.873,17.072l3.199,30.944c0.882,8.54 8.532,14.756 17.071,13.873l90.423,-9.346c8.54,-0.883 14.756,-8.532 13.873,-17.072l-3.198,-30.944Z" style="fill:#ccc591;"/><path d="M699.537,151.499c-0.882,-8.54 -8.532,-14.756 -17.071,-13.873l-90.423,9.346c-8.54,0.883 -14.756,8.532 -13.873,17.072l3.198,30.944c0.883,8.54 8.533,14.756 17.072,13.873l90.423,-9.346c8.539,-0.883 14.755,-8.532 13.873,-17.072l-3.199,-30.944Z" style="fill:#c27d38;"/><path d="M823.239,138.713c-0.883,-8.54 -8.533,-14.756 -17.072,-13.873l-90.423,9.346c-8.539,0.883 -14.756,8.532 -13.873,17.072l3.199,30.944c0.882,8.539 8.532,14.756 17.071,13.873l90.423,-9.346c8.539,-0.883 14.756,-8.533 13.873,-17.072l-3.198,-30.944Z" style="fill:#29211f;"/><path d="M624.616,389.285c0.708,-8.556 -5.662,-16.077 -14.218,-16.785l-90.595,-7.501c-8.555,-0.709 -16.076,5.662 -16.785,14.218l-2.567,31.003c-0.708,8.555 5.663,16.077 14.218,16.785l90.595,7.501c8.556,0.708 16.077,-5.663 16.785,-14.218l2.567,-31.003Z" style="fill:#ccc591;"/><path d="M785.824,269.846c0.708,-8.556 -5.663,-16.077 -14.218,-16.786l-90.595,-7.501c-8.556,-0.708 -16.077,5.663 -16.785,14.219l-2.567,31.003c-0.708,8.555 5.662,16.076 14.218,16.785l90.595,7.501c8.555,0.708 16.076,-5.663 16.785,-14.218l2.567,-31.003Z" style="fill:#ccc591;"/><path d="M619.197,454.73c0.709,-8.555 -5.662,-16.076 -14.218,-16.785l-90.595,-7.501c-8.555,-0.708 -16.076,5.663 -16.785,14.218l-2.567,31.004c-0.708,8.555 5.663,16.076 14.219,16.785l90.594,7.501c8.556,0.708 16.077,-5.663 16.785,-14.218l2.567,-31.004Z" style="fill:#29211f;"/><path d="M780.405,335.291c0.708,-8.555 -5.662,-16.076 -14.218,-16.785l-90.595,-7.501c-8.555,-0.708 -16.076,5.663 -16.785,14.218l-2.567,31.003c-0.708,8.556 5.663,16.077 14.218,16.786l90.595,7.501c8.556,0.708 16.077,-5.663 16.785,-14.219l2.567,-31.003Z" style="fill:#29211f;"/><path d="M758.751,469.283c-1.767,-8.401 -10.023,-13.787 -18.424,-12.02l-88.957,18.712c-8.401,1.767 -13.787,10.023 -12.02,18.424l6.404,30.443c1.767,8.401 10.022,13.787 18.423,12.019l88.958,-18.712c8.401,-1.767 13.787,-10.022 12.02,-18.423l-6.404,-30.443Z" style="fill:#c27d38;"/><path d="M880.448,443.684c-1.767,-8.401 -10.022,-13.787 -18.423,-12.02l-88.958,18.712c-8.401,1.767 -13.787,10.023 -12.02,18.424l6.404,30.443c1.767,8.401 10.022,13.787 18.423,12.019l88.958,-18.712c8.401,-1.767 13.787,-10.022 12.02,-18.423l-6.404,-30.443Z" style="fill:#29211f;"/><path d="M655.574,605.365c2.582,-8.187 -1.969,-16.931 -10.156,-19.513l-86.696,-27.341c-8.187,-2.582 -16.931,1.969 -19.513,10.157l-9.356,29.669c-2.582,8.187 1.969,16.93 10.156,19.512l86.696,27.341c8.187,2.582 16.931,-1.969 19.513,-10.156l9.356,-29.669Z" style="fill:#c27d38;"/><path d="M774.176,642.768c2.582,-8.187 -1.968,-16.931 -10.156,-19.513l-86.696,-27.341c-8.187,-2.582 -16.93,1.969 -19.512,10.157l-9.357,29.669c-2.582,8.187 1.969,16.93 10.156,19.512l86.696,27.341c8.187,2.582 16.931,-1.969 19.513,-10.156l9.356,-29.669Z" style="fill:#29211f;"/><path d="M652.81,694.857c-2.176,-8.304 -10.685,-13.279 -18.989,-11.103l-87.936,23.045c-8.304,2.176 -13.279,10.686 -11.103,18.99l7.887,30.093c2.176,8.304 10.685,13.28 18.989,11.103l87.936,-23.045c8.304,-2.176 13.279,-10.685 11.103,-18.99l-7.887,-30.093Z" style="fill:#ccc591;"/><path d="M869.734,705.933c-1.673,-8.42 -9.868,-13.898 -18.288,-12.225l-89.162,17.716c-8.42,1.674 -13.898,9.868 -12.225,18.288l6.063,30.513c1.673,8.42 9.868,13.898 18.288,12.225l89.162,-17.717c8.42,-1.673 13.898,-9.867 12.225,-18.287l-6.063,-30.513Z" style="fill:#ccc591;"/><path d="M603.968,835.239c3.026,-8.034 -1.039,-17.013 -9.073,-20.039l-85.07,-32.044c-8.034,-3.026 -17.013,1.04 -20.039,9.074l-10.966,29.112c-3.026,8.034 1.039,17.013 9.073,20.039l85.07,32.044c8.034,3.026 17.013,-1.04 20.039,-9.073l10.966,-29.113Z" style="fill:#ccc591;"/><path d="M822.476,805.445c-2.263,-8.281 -10.824,-13.166 -19.105,-10.902l-87.688,23.97c-8.281,2.264 -13.166,10.825 -10.902,19.106l8.203,30.008c2.264,8.281 10.824,13.166 19.106,10.903l87.687,-23.971c8.281,-2.264 13.166,-10.825 10.902,-19.106l-8.203,-30.008Z" style="fill:#ccc591;"/><text x="88.078px" y="36.784px" style="font-family:'CourierNewPSMT', 'Courier New', monospace;font-size:41.667px;">Coordinated</text><text x="499.728px" y="36.028px" style="font-family:'CourierNewPSMT', 'Courier New', monospace;font-size:41.667px;">Un-coordinated</text></svg>